<?xml version="1.0" encoding="us-ascii" standalone="no"?><svg xmlns="http://www.w3.org/2000/svg" xmlns:xlink="http://www.w3.org/1999/xlink" contentStyleType="text/css" height="1414px" preserveAspectRatio="none" style="width:5448px;height:1414px;background:#FFFFFF;" version="1.1" viewBox="0 0 5448 1414" width="5448px" zoomAndPan="magnify"><defs/><g><!--cluster game--><g id="cluster_game"><rect fill="none" height="1401" rx="2.5" ry="2.5" style="stroke:#000000;stroke-width:1.5;" width="4037" x="7" y="7"/><text fill="#000000" font-family="sans-serif" font-size="14" font-weight="bold" lengthAdjust="spacing" textLength="38" x="2006.5" y="23.5332">game</text></g><!--cluster characters--><g id="cluster_characters"><rect fill="none" height="783" rx="2.5" ry="2.5" style="stroke:#000000;stroke-width:1.5;" width="587" x="896" y="229"/><text fill="#000000" font-family="sans-serif" font-size="14" font-weight="bold" lengthAdjust="spacing" textLength="75" x="1152" y="245.5332">characters</text></g><!--cluster inventory--><g id="cluster_inventory"><rect fill="none" height="490" rx="2.5" ry="2.5" style="stroke:#000000;stroke-width:1.5;" width="386" x="1507" y="894"/><text fill="#000000" font-family="sans-serif" font-size="14" font-weight="bold" lengthAdjust="spacing" textLength="67" x="1666.5" y="910.5332">inventory</text></g><!--cluster world--><g id="cluster_world"><rect fill="none" height="364" rx="2.5" ry="2.5" style="stroke:#000000;stroke-width:1.5;" width="934" x="1507" y="185"/><text fill="#000000" font-family="sans-serif" font-size="14" font-weight="bold" lengthAdjust="spacing" textLength="39" x="1954.5" y="201.5332">world</text></g><!--cluster riddles--><g id="cluster_riddles"><rect fill="none" height="188" rx="2.5" ry="2.5" style="stroke:#000000;stroke-width:1.5;" width="594" x="154" y="627.5"/><text fill="#000000" font-family="sans-serif" font-size="14" font-weight="bold" lengthAdjust="spacing" textLength="49" x="426.5" y="644.0332">riddles</text></g><!--cluster ui--><g id="cluster_ui"><rect fill="none" height="223" rx="2.5" ry="2.5" style="stroke:#000000;stroke-width:1.5;" width="841" x="31" y="255.5"/><text fill="#000000" font-family="sans-serif" font-size="14" font-weight="bold" lengthAdjust="spacing" textLength="13" x="445" y="272.0332">ui</text></g><!--cluster minigames--><g id="cluster_minigames"><rect fill="none" height="118" rx="2.5" ry="2.5" style="stroke:#000000;stroke-width:1.5;" width="322" x="3256" y="308"/><text fill="#000000" font-family="sans-serif" font-size="14" font-weight="bold" lengthAdjust="spacing" textLength="75" x="3379.5" y="324.5332">minigames</text></g><!--cluster combat--><g id="cluster_combat"><rect fill="none" height="118" rx="2.5" ry="2.5" style="stroke:#000000;stroke-width:1.5;" width="767" x="2465" y="308"/><text fill="#000000" font-family="sans-serif" font-size="14" font-weight="bold" lengthAdjust="spacing" textLength="51" x="2823" y="324.5332">combat</text></g><!--cluster save--><g id="cluster_save"><rect fill="none" height="223" rx="2.5" ry="2.5" style="stroke:#000000;stroke-width:1.5;" width="254" x="3602" y="255.5"/><text fill="#000000" font-family="sans-serif" font-size="14" font-weight="bold" lengthAdjust="spacing" textLength="34" x="3712" y="272.0332">save</text></g><!--cluster util--><g id="cluster_util"><rect fill="none" height="135" rx="2.5" ry="2.5" style="stroke:#000000;stroke-width:1.5;" width="140" x="3880" y="299.5"/><text fill="#000000" font-family="sans-serif" font-size="14" font-weight="bold" lengthAdjust="spacing" textLength="22" x="3939" y="316.0332">util</text></g><!--class GridQuestRPG--><g id="elem_GridQuestRPG"><rect codeLine="219" fill="#F1F1F1" height="118.4375" id="GridQuestRPG" rx="2.5" ry="2.5" style="stroke:#181818;stroke-width:0.5;" width="187" x="2375.5" y="43"/><ellipse cx="2417.5" cy="59" fill="#ADD1B2" rx="11" ry="11" style="stroke:#181818;stroke-width:1.0;"/><path d="M2420.2656,54.875 Q2420.4219,54.6563 2420.6094,54.5469 Q2420.7969,54.4375 2421.0156,54.4375 Q2421.3906,54.4375 2421.625,54.7031 Q2421.8594,54.9531 2421.8594,55.5625 L2421.8594,57.0156 Q2421.8594,57.625 2421.625,57.8906 Q2421.3906,58.1563 2421.0156,58.1563 Q2420.6719,58.1563 2420.4688,57.9531 Q2420.2656,57.7656 2420.1563,57.25 Q2420.1094,56.8906 2419.9219,56.7031 Q2419.5938,56.3281 2418.9844,56.1094 Q2418.375,55.8906 2417.75,55.8906 Q2416.9844,55.8906 2416.3438,56.2188 Q2415.7188,56.5469 2415.2188,57.2969 Q2414.7344,58.0469 2414.7344,59.0781 L2414.7344,60.1719 Q2414.7344,61.4063 2415.625,62.2344 Q2416.5156,63.0469 2418.1094,63.0469 Q2419.0469,63.0469 2419.7031,62.7969 Q2420.0938,62.6406 2420.5156,62.2031 Q2420.7813,61.9375 2420.9219,61.8594 Q2421.0781,61.7813 2421.2813,61.7813 Q2421.6094,61.7813 2421.8594,62.0469 Q2422.125,62.2969 2422.125,62.6406 Q2422.125,62.9844 2421.7813,63.3906 Q2421.2813,63.9688 2420.4844,64.2969 Q2419.4063,64.75 2418.1094,64.75 Q2416.5938,64.75 2415.3906,64.125 Q2414.4063,63.625 2413.7188,62.5625 Q2413.0313,61.4844 2413.0313,60.2031 L2413.0313,59.0469 Q2413.0313,57.7188 2413.6406,56.5781 Q2414.2656,55.4219 2415.3594,54.8125 Q2416.4531,54.1875 2417.6875,54.1875 Q2418.4219,54.1875 2419.0625,54.3594 Q2419.7188,54.5156 2420.2656,54.875 Z " fill="#000000"/><text fill="#000000" font-family="sans-serif" font-size="14" lengthAdjust="spacing" textLength="95" x="2437.5" y="64.7285">GridQuestRPG</text><line style="stroke:#181818;stroke-width:0.5;" x1="2376.5" x2="2561.5" y1="75" y2="75"/><text fill="#000000" font-family="sans-serif" font-size="14" lengthAdjust="spacing" textLength="175" x="2381.5" y="93.5332">-sentinelDefeated : boolean</text><text fill="#000000" font-family="sans-serif" font-size="14" lengthAdjust="spacing" textLength="114" x="2381.5" y="111.1426">-currentRoom : int</text><text fill="#000000" font-family="sans-serif" font-size="14" lengthAdjust="spacing" textLength="153" x="2381.5" y="128.752">-chestOpened : boolean</text><line style="stroke:#181818;stroke-width:0.5;" x1="2376.5" x2="2561.5" y1="135.8281" y2="135.8281"/><text fill="#000000" font-family="sans-serif" font-size="14" lengthAdjust="spacing" textLength="171" x="2381.5" y="154.3613">+main(args : String[]) : void</text></g><!--class Character--><g id="elem_Character"><rect codeLine="9" fill="#F1F1F1" height="224.0938" id="Character" rx="2.5" ry="2.5" style="stroke:#181818;stroke-width:0.5;" width="216" x="1095" y="265"/><ellipse cx="1167.25" cy="281" fill="#A9DCDF" rx="11" ry="11" style="stroke:#181818;stroke-width:1.0;"/><path d="M1169.4375,282.7656 L1165.2969,282.7656 L1164.875,283.7969 L1165.2969,283.7969 Q1165.9063,283.7969 1166.1719,284.0313 Q1166.4375,284.2656 1166.4375,284.6563 Q1166.4375,285.0313 1166.1719,285.2656 Q1165.9063,285.5 1165.2969,285.5 L1163,285.5 Q1162.3906,285.5 1162.1406,285.2656 Q1161.875,285.0313 1161.875,284.6406 Q1161.875,284.2656 1162.1563,284.0313 Q1162.4219,283.7813 1163.0469,283.7969 L1165.7188,277.1406 L1164.6094,277.1406 Q1164,277.1406 1163.7344,276.9063 Q1163.4688,276.6719 1163.4688,276.2813 Q1163.4688,275.9063 1163.7344,275.6719 Q1164,275.4375 1164.6094,275.4375 L1168.2813,275.4375 L1171.6719,283.7969 Q1172.2656,283.7969 1172.4531,283.9375 Q1172.8438,284.2031 1172.8438,284.6563 Q1172.8438,285.0313 1172.5781,285.2656 Q1172.3281,285.5 1171.7188,285.5 L1169.4219,285.5 Q1168.8125,285.5 1168.5469,285.2656 Q1168.2813,285.0313 1168.2813,284.6406 Q1168.2813,284.2656 1168.5469,284.0313 Q1168.8125,283.7969 1169.4219,283.7969 L1169.8438,283.7969 L1169.4375,282.7656 Z M1168.7188,281.0625 L1167.3594,277.6875 L1165.9844,281.0625 L1168.7188,281.0625 Z " fill="#000000"/><text fill="#000000" font-family="sans-serif" font-size="14" font-style="italic" lengthAdjust="spacing" textLength="63" x="1187.75" y="286.7285">Character</text><line style="stroke:#181818;stroke-width:0.5;" x1="1096" x2="1310" y1="297" y2="297"/><text fill="#000000" font-family="sans-serif" font-size="14" lengthAdjust="spacing" textLength="74" x="1101" y="315.5332">#health : int</text><text fill="#000000" font-family="sans-serif" font-size="14" lengthAdjust="spacing" textLength="73" x="1101" y="333.1426">#attack : int</text><text fill="#000000" font-family="sans-serif" font-size="14" lengthAdjust="spacing" textLength="100" x="1101" y="350.752">#maxHealth : int</text><line style="stroke:#181818;stroke-width:0.5;" x1="1096" x2="1310" y1="357.8281" y2="357.8281"/><text fill="#000000" font-family="sans-serif" font-size="14" lengthAdjust="spacing" textLength="204" x="1101" y="376.3613">+takeTurn(player : Player) : void</text><text fill="#000000" font-family="sans-serif" font-size="14" lengthAdjust="spacing" textLength="121" x="1101" y="393.9707">+isAlive() : boolean</text><text fill="#000000" font-family="sans-serif" font-size="14" lengthAdjust="spacing" textLength="105" x="1101" y="411.5801">+getHealth() : int</text><text fill="#000000" font-family="sans-serif" font-size="14" lengthAdjust="spacing" textLength="130" x="1101" y="429.1895">+getMaxHealth() : int</text><text fill="#000000" font-family="sans-serif" font-size="14" lengthAdjust="spacing" textLength="104" x="1101" y="446.7988">+getAttack() : int</text><text fill="#000000" font-family="sans-serif" font-size="14" lengthAdjust="spacing" textLength="190" x="1101" y="464.4082">+takeDamage(dmg : int) : void</text><text fill="#000000" font-family="sans-serif" font-size="14" lengthAdjust="spacing" textLength="157" x="1101" y="482.0176">+heal(amount : int) : void</text></g><!--class Player--><g id="elem_Player"><rect codeLine="22" fill="#F1F1F1" height="276.9219" id="Player" rx="2.5" ry="2.5" style="stroke:#181818;stroke-width:0.5;" width="216" x="1251" y="593"/><ellipse cx="1334.75" cy="609" fill="#ADD1B2" rx="11" ry="11" style="stroke:#181818;stroke-width:1.0;"/><path d="M1337.5156,604.875 Q1337.6719,604.6563 1337.8594,604.5469 Q1338.0469,604.4375 1338.2656,604.4375 Q1338.6406,604.4375 1338.875,604.7031 Q1339.1094,604.9531 1339.1094,605.5625 L1339.1094,607.0156 Q1339.1094,607.625 1338.875,607.8906 Q1338.6406,608.1563 1338.2656,608.1563 Q1337.9219,608.1563 1337.7188,607.9531 Q1337.5156,607.7656 1337.4063,607.25 Q1337.3594,606.8906 1337.1719,606.7031 Q1336.8438,606.3281 1336.2344,606.1094 Q1335.625,605.8906 1335,605.8906 Q1334.2344,605.8906 1333.5938,606.2188 Q1332.9688,606.5469 1332.4688,607.2969 Q1331.9844,608.0469 1331.9844,609.0781 L1331.9844,610.1719 Q1331.9844,611.4063 1332.875,612.2344 Q1333.7656,613.0469 1335.3594,613.0469 Q1336.2969,613.0469 1336.9531,612.7969 Q1337.3438,612.6406 1337.7656,612.2031 Q1338.0313,611.9375 1338.1719,611.8594 Q1338.3281,611.7813 1338.5313,611.7813 Q1338.8594,611.7813 1339.1094,612.0469 Q1339.375,612.2969 1339.375,612.6406 Q1339.375,612.9844 1339.0313,613.3906 Q1338.5313,613.9688 1337.7344,614.2969 Q1336.6563,614.75 1335.3594,614.75 Q1333.8438,614.75 1332.6406,614.125 Q1331.6563,613.625 1330.9688,612.5625 Q1330.2813,611.4844 1330.2813,610.2031 L1330.2813,609.0469 Q1330.2813,607.7188 1330.8906,606.5781 Q1331.5156,605.4219 1332.6094,604.8125 Q1333.7031,604.1875 1334.9375,604.1875 Q1335.6719,604.1875 1336.3125,604.3594 Q1336.9688,604.5156 1337.5156,604.875 Z " fill="#000000"/><text fill="#000000" font-family="sans-serif" font-size="14" lengthAdjust="spacing" textLength="40" x="1355.25" y="614.7285">Player</text><line style="stroke:#181818;stroke-width:0.5;" x1="1252" x2="1466" y1="625" y2="625"/><text fill="#000000" font-family="sans-serif" font-size="14" lengthAdjust="spacing" textLength="133" x="1257" y="643.5332">-inventory : Inventory</text><text fill="#000000" font-family="sans-serif" font-size="14" lengthAdjust="spacing" textLength="38" x="1257" y="661.1426">-x : int</text><text fill="#000000" font-family="sans-serif" font-size="14" lengthAdjust="spacing" textLength="39" x="1257" y="678.752">-y : int</text><line style="stroke:#181818;stroke-width:0.5;" x1="1252" x2="1466" y1="685.8281" y2="685.8281"/><text fill="#000000" font-family="sans-serif" font-size="14" lengthAdjust="spacing" textLength="58" x="1257" y="704.3613">+Player()</text><text fill="#000000" font-family="sans-serif" font-size="14" lengthAdjust="spacing" textLength="197" x="1257" y="721.9707">+Player(health : int, attack : int)</text><text fill="#000000" font-family="sans-serif" font-size="14" lengthAdjust="spacing" textLength="204" x="1257" y="739.5801">+takeTurn(player : Player) : void</text><text fill="#000000" font-family="sans-serif" font-size="14" lengthAdjust="spacing" textLength="166" x="1257" y="757.1895">+getInventory() : Inventory</text><text fill="#000000" font-family="sans-serif" font-size="14" lengthAdjust="spacing" textLength="127" x="1257" y="774.7988">+saveData() : String</text><text fill="#000000" font-family="sans-serif" font-size="14" lengthAdjust="spacing" textLength="181" x="1257" y="792.4082">+setHealth(health : int) : void</text><text fill="#000000" font-family="sans-serif" font-size="14" lengthAdjust="spacing" textLength="73" x="1257" y="810.0176">+getX() : int</text><text fill="#000000" font-family="sans-serif" font-size="14" lengthAdjust="spacing" textLength="74" x="1257" y="827.627">+getY() : int</text><text fill="#000000" font-family="sans-serif" font-size="14" lengthAdjust="spacing" textLength="116" x="1257" y="845.2363">+setX(x : int) : void</text><text fill="#000000" font-family="sans-serif" font-size="14" lengthAdjust="spacing" textLength="118" x="1257" y="862.8457">+setY(y : int) : void</text></g><!--class Enemy--><g id="elem_Enemy"><rect codeLine="38" fill="#F1F1F1" height="118.4375" id="Enemy" rx="2.5" ry="2.5" style="stroke:#181818;stroke-width:0.5;" width="304" x="912" y="672.5"/><ellipse cx="1038.25" cy="688.5" fill="#ADD1B2" rx="11" ry="11" style="stroke:#181818;stroke-width:1.0;"/><path d="M1041.0156,684.375 Q1041.1719,684.1563 1041.3594,684.0469 Q1041.5469,683.9375 1041.7656,683.9375 Q1042.1406,683.9375 1042.375,684.2031 Q1042.6094,684.4531 1042.6094,685.0625 L1042.6094,686.5156 Q1042.6094,687.125 1042.375,687.3906 Q1042.1406,687.6563 1041.7656,687.6563 Q1041.4219,687.6563 1041.2188,687.4531 Q1041.0156,687.2656 1040.9063,686.75 Q1040.8594,686.3906 1040.6719,686.2031 Q1040.3438,685.8281 1039.7344,685.6094 Q1039.125,685.3906 1038.5,685.3906 Q1037.7344,685.3906 1037.0938,685.7188 Q1036.4688,686.0469 1035.9688,686.7969 Q1035.4844,687.5469 1035.4844,688.5781 L1035.4844,689.6719 Q1035.4844,690.9063 1036.375,691.7344 Q1037.2656,692.5469 1038.8594,692.5469 Q1039.7969,692.5469 1040.4531,692.2969 Q1040.8438,692.1406 1041.2656,691.7031 Q1041.5313,691.4375 1041.6719,691.3594 Q1041.8281,691.2813 1042.0313,691.2813 Q1042.3594,691.2813 1042.6094,691.5469 Q1042.875,691.7969 1042.875,692.1406 Q1042.875,692.4844 1042.5313,692.8906 Q1042.0313,693.4688 1041.2344,693.7969 Q1040.1563,694.25 1038.8594,694.25 Q1037.3438,694.25 1036.1406,693.625 Q1035.1563,693.125 1034.4688,692.0625 Q1033.7813,690.9844 1033.7813,689.7031 L1033.7813,688.5469 Q1033.7813,687.2188 1034.3906,686.0781 Q1035.0156,684.9219 1036.1094,684.3125 Q1037.2031,683.6875 1038.4375,683.6875 Q1039.1719,683.6875 1039.8125,683.8594 Q1040.4688,684.0156 1041.0156,684.375 Z " fill="#000000"/><text fill="#000000" font-family="sans-serif" font-size="14" lengthAdjust="spacing" textLength="43" x="1058.75" y="694.2285">Enemy</text><line style="stroke:#181818;stroke-width:0.5;" x1="913" x2="1215" y1="704.5" y2="704.5"/><text fill="#000000" font-family="sans-serif" font-size="14" lengthAdjust="spacing" textLength="89" x="918" y="723.0332">-name : String</text><line style="stroke:#181818;stroke-width:0.5;" x1="913" x2="1215" y1="730.1094" y2="730.1094"/><text fill="#000000" font-family="sans-serif" font-size="14" lengthAdjust="spacing" textLength="292" x="918" y="748.6426">+Enemy(name : String, health : int, attack : int)</text><text fill="#000000" font-family="sans-serif" font-size="14" lengthAdjust="spacing" textLength="204" x="918" y="766.252">+takeTurn(player : Player) : void</text><text fill="#000000" font-family="sans-serif" font-size="14" lengthAdjust="spacing" textLength="123" x="918" y="783.8613">+getName() : String</text></g><!--class Goblin--><g id="elem_Goblin"><rect codeLine="45" fill="#F1F1F1" height="65.6094" id="Goblin" rx="2.5" ry="2.5" style="stroke:#181818;stroke-width:0.5;" width="73" x="1027.5" y="930"/><ellipse cx="1042.5" cy="946" fill="#ADD1B2" rx="11" ry="11" style="stroke:#181818;stroke-width:1.0;"/><path d="M1045.2656,941.875 Q1045.4219,941.6563 1045.6094,941.5469 Q1045.7969,941.4375 1046.0156,941.4375 Q1046.3906,941.4375 1046.625,941.7031 Q1046.8594,941.9531 1046.8594,942.5625 L1046.8594,944.0156 Q1046.8594,944.625 1046.625,944.8906 Q1046.3906,945.1563 1046.0156,945.1563 Q1045.6719,945.1563 1045.4688,944.9531 Q1045.2656,944.7656 1045.1563,944.25 Q1045.1094,943.8906 1044.9219,943.7031 Q1044.5938,943.3281 1043.9844,943.1094 Q1043.375,942.8906 1042.75,942.8906 Q1041.9844,942.8906 1041.3438,943.2188 Q1040.7188,943.5469 1040.2188,944.2969 Q1039.7344,945.0469 1039.7344,946.0781 L1039.7344,947.1719 Q1039.7344,948.4063 1040.625,949.2344 Q1041.5156,950.0469 1043.1094,950.0469 Q1044.0469,950.0469 1044.7031,949.7969 Q1045.0938,949.6406 1045.5156,949.2031 Q1045.7813,948.9375 1045.9219,948.8594 Q1046.0781,948.7813 1046.2813,948.7813 Q1046.6094,948.7813 1046.8594,949.0469 Q1047.125,949.2969 1047.125,949.6406 Q1047.125,949.9844 1046.7813,950.3906 Q1046.2813,950.9688 1045.4844,951.2969 Q1044.4063,951.75 1043.1094,951.75 Q1041.5938,951.75 1040.3906,951.125 Q1039.4063,950.625 1038.7188,949.5625 Q1038.0313,948.4844 1038.0313,947.2031 L1038.0313,946.0469 Q1038.0313,944.7188 1038.6406,943.5781 Q1039.2656,942.4219 1040.3594,941.8125 Q1041.4531,941.1875 1042.6875,941.1875 Q1043.4219,941.1875 1044.0625,941.3594 Q1044.7188,941.5156 1045.2656,941.875 Z " fill="#000000"/><text fill="#000000" font-family="sans-serif" font-size="14" lengthAdjust="spacing" textLength="41" x="1056.5" y="951.7285">Goblin</text><line style="stroke:#181818;stroke-width:0.5;" x1="1028.5" x2="1099.5" y1="962" y2="962"/><line style="stroke:#181818;stroke-width:0.5;" x1="1028.5" x2="1099.5" y1="970" y2="970"/><text fill="#000000" font-family="sans-serif" font-size="14" lengthAdjust="spacing" textLength="59" x="1033.5" y="988.5332">+Goblin()</text></g><!--class Saveable--><g id="elem_Saveable"><rect codeLine="59" fill="#F1F1F1" height="65.6094" id="Saveable" rx="2.5" ry="2.5" style="stroke:#181818;stroke-width:0.5;" width="139" x="1576.5" y="930"/><ellipse cx="1613.55" cy="946" fill="#B4A7E5" rx="11" ry="11" style="stroke:#181818;stroke-width:1.0;"/><path d="M1614.5031,942.6406 L1614.5031,949.2969 L1616.2219,949.2969 Q1616.8313,949.2969 1617.0969,949.5313 Q1617.3625,949.7656 1617.3625,950.1563 Q1617.3625,950.5313 1617.0969,950.7656 Q1616.8313,951 1616.2219,951 L1611.0813,951 Q1610.4719,951 1610.2063,950.7656 Q1609.9406,950.5313 1609.9406,950.1406 Q1609.9406,949.7656 1610.2063,949.5313 Q1610.4719,949.2969 1611.0813,949.2969 L1612.8,949.2969 L1612.8,942.6406 L1611.0813,942.6406 Q1610.4719,942.6406 1610.2063,942.4063 Q1609.9406,942.1719 1609.9406,941.7813 Q1609.9406,941.4063 1610.2063,941.1719 Q1610.4719,940.9375 1611.0813,940.9375 L1616.2219,940.9375 Q1616.8313,940.9375 1617.0969,941.1719 Q1617.3625,941.4063 1617.3625,941.7813 Q1617.3625,942.1719 1617.0969,942.4063 Q1616.8313,942.6406 1616.2219,942.6406 L1614.5031,942.6406 Z " fill="#000000"/><text fill="#000000" font-family="sans-serif" font-size="14" font-style="italic" lengthAdjust="spacing" textLength="58" x="1632.45" y="951.7285">Saveable</text><line style="stroke:#181818;stroke-width:0.5;" x1="1577.5" x2="1714.5" y1="962" y2="962"/><line style="stroke:#181818;stroke-width:0.5;" x1="1577.5" x2="1714.5" y1="970" y2="970"/><text fill="#000000" font-family="sans-serif" font-size="14" lengthAdjust="spacing" textLength="127" x="1582.5" y="988.5332">+saveData() : String</text></g><!--class Inventory--><g id="elem_Inventory"><rect codeLine="63" fill="#F1F1F1" height="312.1406" id="Inventory" rx="2.5" ry="2.5" style="stroke:#181818;stroke-width:0.5;" width="354" x="1523" y="1056"/><ellipse cx="1666.75" cy="1072" fill="#ADD1B2" rx="11" ry="11" style="stroke:#181818;stroke-width:1.0;"/><path d="M1669.5156,1067.875 Q1669.6719,1067.6563 1669.8594,1067.5469 Q1670.0469,1067.4375 1670.2656,1067.4375 Q1670.6406,1067.4375 1670.875,1067.7031 Q1671.1094,1067.9531 1671.1094,1068.5625 L1671.1094,1070.0156 Q1671.1094,1070.625 1670.875,1070.8906 Q1670.6406,1071.1563 1670.2656,1071.1563 Q1669.9219,1071.1563 1669.7188,1070.9531 Q1669.5156,1070.7656 1669.4063,1070.25 Q1669.3594,1069.8906 1669.1719,1069.7031 Q1668.8438,1069.3281 1668.2344,1069.1094 Q1667.625,1068.8906 1667,1068.8906 Q1666.2344,1068.8906 1665.5938,1069.2188 Q1664.9688,1069.5469 1664.4688,1070.2969 Q1663.9844,1071.0469 1663.9844,1072.0781 L1663.9844,1073.1719 Q1663.9844,1074.4063 1664.875,1075.2344 Q1665.7656,1076.0469 1667.3594,1076.0469 Q1668.2969,1076.0469 1668.9531,1075.7969 Q1669.3438,1075.6406 1669.7656,1075.2031 Q1670.0313,1074.9375 1670.1719,1074.8594 Q1670.3281,1074.7813 1670.5313,1074.7813 Q1670.8594,1074.7813 1671.1094,1075.0469 Q1671.375,1075.2969 1671.375,1075.6406 Q1671.375,1075.9844 1671.0313,1076.3906 Q1670.5313,1076.9688 1669.7344,1077.2969 Q1668.6563,1077.75 1667.3594,1077.75 Q1665.8438,1077.75 1664.6406,1077.125 Q1663.6563,1076.625 1662.9688,1075.5625 Q1662.2813,1074.4844 1662.2813,1073.2031 L1662.2813,1072.0469 Q1662.2813,1070.7188 1662.8906,1069.5781 Q1663.5156,1068.4219 1664.6094,1067.8125 Q1665.7031,1067.1875 1666.9375,1067.1875 Q1667.6719,1067.1875 1668.3125,1067.3594 Q1668.9688,1067.5156 1669.5156,1067.875 Z " fill="#000000"/><text fill="#000000" font-family="sans-serif" font-size="14" lengthAdjust="spacing" textLength="58" x="1687.25" y="1077.7285">Inventory</text><line style="stroke:#181818;stroke-width:0.5;" x1="1524" x2="1876" y1="1088" y2="1088"/><text fill="#000000" font-family="sans-serif" font-size="14" lengthAdjust="spacing" textLength="159" x="1529" y="1106.5332">-items : ArrayList&lt;String&gt;</text><text fill="#000000" font-family="sans-serif" font-size="14" lengthAdjust="spacing" textLength="160" x="1529" y="1124.1426">-order : ArrayList&lt;String&gt;</text><line style="stroke:#181818;stroke-width:0.5;" x1="1524" x2="1876" y1="1131.2188" y2="1131.2188"/><text fill="#000000" font-family="sans-serif" font-size="14" lengthAdjust="spacing" textLength="76" x="1529" y="1149.752">+Inventory()</text><text fill="#000000" font-family="sans-serif" font-size="14" lengthAdjust="spacing" textLength="235" x="1529" y="1167.3613">+usePotion(player : Player) : boolean</text><text fill="#000000" font-family="sans-serif" font-size="14" lengthAdjust="spacing" textLength="231" x="1529" y="1184.9707">+useApple(player : Player) : boolean</text><text fill="#000000" font-family="sans-serif" font-size="14" lengthAdjust="spacing" textLength="220" x="1529" y="1202.5801">+contains(target : String) : boolean</text><text fill="#000000" font-family="sans-serif" font-size="14" lengthAdjust="spacing" textLength="181" x="1529" y="1220.1895">+addItem(item : String) : void</text><text fill="#000000" font-family="sans-serif" font-size="14" lengthAdjust="spacing" textLength="100" x="1529" y="1237.7988">+display() : void</text><text fill="#000000" font-family="sans-serif" font-size="14" lengthAdjust="spacing" textLength="144" x="1529" y="1255.4082">+hasPotion() : boolean</text><text fill="#000000" font-family="sans-serif" font-size="14" lengthAdjust="spacing" textLength="143" x="1529" y="1273.0176">+removePotion() : void</text><text fill="#000000" font-family="sans-serif" font-size="14" lengthAdjust="spacing" textLength="342" x="1529" y="1290.627">+addMultipleItems(itemName : String, count : int) : void</text><text fill="#000000" font-family="sans-serif" font-size="14" lengthAdjust="spacing" textLength="192" x="1529" y="1308.2363">+getItems() : ArrayList&lt;String&gt;</text><text fill="#000000" font-family="sans-serif" font-size="14" lengthAdjust="spacing" textLength="138" x="1529" y="1325.8457">+selectionSort() : void</text><text fill="#000000" font-family="sans-serif" font-size="14" lengthAdjust="spacing" textLength="241" x="1529" y="1343.4551">+sequentialSearch(target : String) : int</text><text fill="#000000" font-family="sans-serif" font-size="14" lengthAdjust="spacing" textLength="127" x="1529" y="1361.0645">+saveData() : String</text></g><!--class Room--><g id="elem_Room"><rect codeLine="89" fill="#F1F1F1" height="312.1406" id="Room" rx="2.5" ry="2.5" style="stroke:#181818;stroke-width:0.5;" width="317" x="2107.5" y="221"/><ellipse cx="2243.25" cy="237" fill="#ADD1B2" rx="11" ry="11" style="stroke:#181818;stroke-width:1.0;"/><path d="M2246.0156,232.875 Q2246.1719,232.6563 2246.3594,232.5469 Q2246.5469,232.4375 2246.7656,232.4375 Q2247.1406,232.4375 2247.375,232.7031 Q2247.6094,232.9531 2247.6094,233.5625 L2247.6094,235.0156 Q2247.6094,235.625 2247.375,235.8906 Q2247.1406,236.1563 2246.7656,236.1563 Q2246.4219,236.1563 2246.2188,235.9531 Q2246.0156,235.7656 2245.9063,235.25 Q2245.8594,234.8906 2245.6719,234.7031 Q2245.3438,234.3281 2244.7344,234.1094 Q2244.125,233.8906 2243.5,233.8906 Q2242.7344,233.8906 2242.0938,234.2188 Q2241.4688,234.5469 2240.9688,235.2969 Q2240.4844,236.0469 2240.4844,237.0781 L2240.4844,238.1719 Q2240.4844,239.4063 2241.375,240.2344 Q2242.2656,241.0469 2243.8594,241.0469 Q2244.7969,241.0469 2245.4531,240.7969 Q2245.8438,240.6406 2246.2656,240.2031 Q2246.5313,239.9375 2246.6719,239.8594 Q2246.8281,239.7813 2247.0313,239.7813 Q2247.3594,239.7813 2247.6094,240.0469 Q2247.875,240.2969 2247.875,240.6406 Q2247.875,240.9844 2247.5313,241.3906 Q2247.0313,241.9688 2246.2344,242.2969 Q2245.1563,242.75 2243.8594,242.75 Q2242.3438,242.75 2241.1406,242.125 Q2240.1563,241.625 2239.4688,240.5625 Q2238.7813,239.4844 2238.7813,238.2031 L2238.7813,237.0469 Q2238.7813,235.7188 2239.3906,234.5781 Q2240.0156,233.4219 2241.1094,232.8125 Q2242.2031,232.1875 2243.4375,232.1875 Q2244.1719,232.1875 2244.8125,232.3594 Q2245.4688,232.5156 2246.0156,232.875 Z " fill="#000000"/><text fill="#000000" font-family="sans-serif" font-size="14" lengthAdjust="spacing" textLength="37" x="2263.75" y="242.7285">Room</text><line style="stroke:#181818;stroke-width:0.5;" x1="2108.5" x2="2423.5" y1="253" y2="253"/><text fill="#000000" font-family="sans-serif" font-size="14" lengthAdjust="spacing" textLength="89" x="2113.5" y="271.5332">-name : String</text><text fill="#000000" font-family="sans-serif" font-size="14" lengthAdjust="spacing" textLength="123" x="2113.5" y="289.1426">-description : String</text><text fill="#000000" font-family="sans-serif" font-size="14" lengthAdjust="spacing" textLength="79" x="2113.5" y="306.752">-art : String[]</text><text fill="#000000" font-family="sans-serif" font-size="14" lengthAdjust="spacing" textLength="102" x="2113.5" y="324.3613">-enemy : Enemy</text><text fill="#000000" font-family="sans-serif" font-size="14" lengthAdjust="spacing" textLength="209" x="2113.5" y="341.9707">-exits : HashMap&lt;String, Integer&gt;</text><line style="stroke:#181818;stroke-width:0.5;" x1="2108.5" x2="2423.5" y1="349.0469" y2="349.0469"/><text fill="#000000" font-family="sans-serif" font-size="14" lengthAdjust="spacing" textLength="265" x="2113.5" y="367.5801">+Room(name : String, description : String)</text><text fill="#000000" font-family="sans-serif" font-size="14" lengthAdjust="spacing" textLength="167" x="2113.5" y="385.1895">+setArt(art : String[]) : void</text><text fill="#000000" font-family="sans-serif" font-size="14" lengthAdjust="spacing" textLength="215" x="2113.5" y="402.7988">+setEnemy(enemy : Enemy) : void</text><text fill="#000000" font-family="sans-serif" font-size="14" lengthAdjust="spacing" textLength="147" x="2113.5" y="420.4082">+hasEnemy() : boolean</text><text fill="#000000" font-family="sans-serif" font-size="14" lengthAdjust="spacing" textLength="136" x="2113.5" y="438.0176">+getEnemy() : Enemy</text><text fill="#000000" font-family="sans-serif" font-size="14" lengthAdjust="spacing" textLength="139" x="2113.5" y="455.627">+defeatEnemy() : void</text><text fill="#000000" font-family="sans-serif" font-size="14" lengthAdjust="spacing" textLength="305" x="2113.5" y="473.2363">+addExit(direction : String, roomIndex : int) : void</text><text fill="#000000" font-family="sans-serif" font-size="14" lengthAdjust="spacing" textLength="190" x="2113.5" y="490.8457">+getExit(direction : String) : int</text><text fill="#000000" font-family="sans-serif" font-size="14" lengthAdjust="spacing" textLength="123" x="2113.5" y="508.4551">+getName() : String</text><text fill="#000000" font-family="sans-serif" font-size="14" lengthAdjust="spacing" textLength="100" x="2113.5" y="526.0645">+display() : void</text></g><!--class WorldBuilder--><g id="elem_WorldBuilder"><rect codeLine="107" fill="#F1F1F1" height="65.6094" id="WorldBuilder" rx="2.5" ry="2.5" style="stroke:#181818;stroke-width:0.5;" width="293" x="1779.5" y="344"/><ellipse cx="1881.25" cy="360" fill="#ADD1B2" rx="11" ry="11" style="stroke:#181818;stroke-width:1.0;"/><path d="M1884.0156,355.875 Q1884.1719,355.6563 1884.3594,355.5469 Q1884.5469,355.4375 1884.7656,355.4375 Q1885.1406,355.4375 1885.375,355.7031 Q1885.6094,355.9531 1885.6094,356.5625 L1885.6094,358.0156 Q1885.6094,358.625 1885.375,358.8906 Q1885.1406,359.1563 1884.7656,359.1563 Q1884.4219,359.1563 1884.2188,358.9531 Q1884.0156,358.7656 1883.9063,358.25 Q1883.8594,357.8906 1883.6719,357.7031 Q1883.3438,357.3281 1882.7344,357.1094 Q1882.125,356.8906 1881.5,356.8906 Q1880.7344,356.8906 1880.0938,357.2188 Q1879.4688,357.5469 1878.9688,358.2969 Q1878.4844,359.0469 1878.4844,360.0781 L1878.4844,361.1719 Q1878.4844,362.4063 1879.375,363.2344 Q1880.2656,364.0469 1881.8594,364.0469 Q1882.7969,364.0469 1883.4531,363.7969 Q1883.8438,363.6406 1884.2656,363.2031 Q1884.5313,362.9375 1884.6719,362.8594 Q1884.8281,362.7813 1885.0313,362.7813 Q1885.3594,362.7813 1885.6094,363.0469 Q1885.875,363.2969 1885.875,363.6406 Q1885.875,363.9844 1885.5313,364.3906 Q1885.0313,364.9688 1884.2344,365.2969 Q1883.1563,365.75 1881.8594,365.75 Q1880.3438,365.75 1879.1406,365.125 Q1878.1563,364.625 1877.4688,363.5625 Q1876.7813,362.4844 1876.7813,361.2031 L1876.7813,360.0469 Q1876.7813,358.7188 1877.3906,357.5781 Q1878.0156,356.4219 1879.1094,355.8125 Q1880.2031,355.1875 1881.4375,355.1875 Q1882.1719,355.1875 1882.8125,355.3594 Q1883.4688,355.5156 1884.0156,355.875 Z " fill="#000000"/><text fill="#000000" font-family="sans-serif" font-size="14" lengthAdjust="spacing" textLength="81" x="1901.75" y="365.7285">WorldBuilder</text><line style="stroke:#181818;stroke-width:0.5;" x1="1780.5" x2="2071.5" y1="376" y2="376"/><line style="stroke:#181818;stroke-width:0.5;" x1="1780.5" x2="2071.5" y1="384" y2="384"/><text fill="#000000" font-family="sans-serif" font-size="14" lengthAdjust="spacing" textLength="281" x="1785.5" y="402.5332">+createWorld(map : ArrayList&lt;Room&gt;) : void</text></g><!--class WorldMap--><g id="elem_WorldMap"><rect codeLine="111" fill="#F1F1F1" height="65.6094" id="WorldMap" rx="2.5" ry="2.5" style="stroke:#181818;stroke-width:0.5;" width="221" x="1523.5" y="344"/><ellipse cx="1597.75" cy="360" fill="#ADD1B2" rx="11" ry="11" style="stroke:#181818;stroke-width:1.0;"/><path d="M1600.5156,355.875 Q1600.6719,355.6563 1600.8594,355.5469 Q1601.0469,355.4375 1601.2656,355.4375 Q1601.6406,355.4375 1601.875,355.7031 Q1602.1094,355.9531 1602.1094,356.5625 L1602.1094,358.0156 Q1602.1094,358.625 1601.875,358.8906 Q1601.6406,359.1563 1601.2656,359.1563 Q1600.9219,359.1563 1600.7188,358.9531 Q1600.5156,358.7656 1600.4063,358.25 Q1600.3594,357.8906 1600.1719,357.7031 Q1599.8438,357.3281 1599.2344,357.1094 Q1598.625,356.8906 1598,356.8906 Q1597.2344,356.8906 1596.5938,357.2188 Q1595.9688,357.5469 1595.4688,358.2969 Q1594.9844,359.0469 1594.9844,360.0781 L1594.9844,361.1719 Q1594.9844,362.4063 1595.875,363.2344 Q1596.7656,364.0469 1598.3594,364.0469 Q1599.2969,364.0469 1599.9531,363.7969 Q1600.3438,363.6406 1600.7656,363.2031 Q1601.0313,362.9375 1601.1719,362.8594 Q1601.3281,362.7813 1601.5313,362.7813 Q1601.8594,362.7813 1602.1094,363.0469 Q1602.375,363.2969 1602.375,363.6406 Q1602.375,363.9844 1602.0313,364.3906 Q1601.5313,364.9688 1600.7344,365.2969 Q1599.6563,365.75 1598.3594,365.75 Q1596.8438,365.75 1595.6406,365.125 Q1594.6563,364.625 1593.9688,363.5625 Q1593.2813,362.4844 1593.2813,361.2031 L1593.2813,360.0469 Q1593.2813,358.7188 1593.8906,357.5781 Q1594.5156,356.4219 1595.6094,355.8125 Q1596.7031,355.1875 1597.9375,355.1875 Q1598.6719,355.1875 1599.3125,355.3594 Q1599.9688,355.5156 1600.5156,355.875 Z " fill="#000000"/><text fill="#000000" font-family="sans-serif" font-size="14" lengthAdjust="spacing" textLength="64" x="1618.25" y="365.7285">WorldMap</text><line style="stroke:#181818;stroke-width:0.5;" x1="1524.5" x2="1743.5" y1="376" y2="376"/><line style="stroke:#181818;stroke-width:0.5;" x1="1524.5" x2="1743.5" y1="384" y2="384"/><text fill="#000000" font-family="sans-serif" font-size="14" lengthAdjust="spacing" textLength="209" x="1529.5" y="402.5332">+display(currentRoom : int) : void</text></g><!--class Riddle--><g id="elem_Riddle"><rect codeLine="123" fill="#F1F1F1" height="136.0469" id="Riddle" rx="2.5" ry="2.5" style="stroke:#181818;stroke-width:0.5;" width="275" x="170.5" y="663.5"/><ellipse cx="283.75" cy="679.5" fill="#ADD1B2" rx="11" ry="11" style="stroke:#181818;stroke-width:1.0;"/><path d="M286.5156,675.375 Q286.6719,675.1563 286.8594,675.0469 Q287.0469,674.9375 287.2656,674.9375 Q287.6406,674.9375 287.875,675.2031 Q288.1094,675.4531 288.1094,676.0625 L288.1094,677.5156 Q288.1094,678.125 287.875,678.3906 Q287.6406,678.6563 287.2656,678.6563 Q286.9219,678.6563 286.7188,678.4531 Q286.5156,678.2656 286.4063,677.75 Q286.3594,677.3906 286.1719,677.2031 Q285.8438,676.8281 285.2344,676.6094 Q284.625,676.3906 284,676.3906 Q283.2344,676.3906 282.5938,676.7188 Q281.9688,677.0469 281.4688,677.7969 Q280.9844,678.5469 280.9844,679.5781 L280.9844,680.6719 Q280.9844,681.9063 281.875,682.7344 Q282.7656,683.5469 284.3594,683.5469 Q285.2969,683.5469 285.9531,683.2969 Q286.3438,683.1406 286.7656,682.7031 Q287.0313,682.4375 287.1719,682.3594 Q287.3281,682.2813 287.5313,682.2813 Q287.8594,682.2813 288.1094,682.5469 Q288.375,682.7969 288.375,683.1406 Q288.375,683.4844 288.0313,683.8906 Q287.5313,684.4688 286.7344,684.7969 Q285.6563,685.25 284.3594,685.25 Q282.8438,685.25 281.6406,684.625 Q280.6563,684.125 279.9688,683.0625 Q279.2813,681.9844 279.2813,680.7031 L279.2813,679.5469 Q279.2813,678.2188 279.8906,677.0781 Q280.5156,675.9219 281.6094,675.3125 Q282.7031,674.6875 283.9375,674.6875 Q284.6719,674.6875 285.3125,674.8594 Q285.9688,675.0156 286.5156,675.375 Z " fill="#000000"/><text fill="#000000" font-family="sans-serif" font-size="14" lengthAdjust="spacing" textLength="40" x="304.25" y="685.2285">Riddle</text><line style="stroke:#181818;stroke-width:0.5;" x1="171.5" x2="444.5" y1="695.5" y2="695.5"/><text fill="#000000" font-family="sans-serif" font-size="14" lengthAdjust="spacing" textLength="108" x="176.5" y="714.0332">-question : String</text><text fill="#000000" font-family="sans-serif" font-size="14" lengthAdjust="spacing" textLength="99" x="176.5" y="731.6426">-answer : String</text><line style="stroke:#181818;stroke-width:0.5;" x1="171.5" x2="444.5" y1="738.7188" y2="738.7188"/><text fill="#000000" font-family="sans-serif" font-size="14" lengthAdjust="spacing" textLength="263" x="176.5" y="757.252">+Riddle(question : String, answer : String)</text><text fill="#000000" font-family="sans-serif" font-size="14" lengthAdjust="spacing" textLength="144" x="176.5" y="774.8613">+getQuestion() : String</text><text fill="#000000" font-family="sans-serif" font-size="14" lengthAdjust="spacing" textLength="244" x="176.5" y="792.4707">+checkAnswer(input : String) : boolean</text></g><!--class RiddleBank--><g id="elem_RiddleBank"><rect codeLine="131" fill="#F1F1F1" height="83.2188" id="RiddleBank" rx="2.5" ry="2.5" style="stroke:#181818;stroke-width:0.5;" width="251" x="480.5" y="690"/><ellipse cx="565.75" cy="706" fill="#ADD1B2" rx="11" ry="11" style="stroke:#181818;stroke-width:1.0;"/><path d="M568.5156,701.875 Q568.6719,701.6563 568.8594,701.5469 Q569.0469,701.4375 569.2656,701.4375 Q569.6406,701.4375 569.875,701.7031 Q570.1094,701.9531 570.1094,702.5625 L570.1094,704.0156 Q570.1094,704.625 569.875,704.8906 Q569.6406,705.1563 569.2656,705.1563 Q568.9219,705.1563 568.7188,704.9531 Q568.5156,704.7656 568.4063,704.25 Q568.3594,703.8906 568.1719,703.7031 Q567.8438,703.3281 567.2344,703.1094 Q566.625,702.8906 566,702.8906 Q565.2344,702.8906 564.5938,703.2188 Q563.9688,703.5469 563.4688,704.2969 Q562.9844,705.0469 562.9844,706.0781 L562.9844,707.1719 Q562.9844,708.4063 563.875,709.2344 Q564.7656,710.0469 566.3594,710.0469 Q567.2969,710.0469 567.9531,709.7969 Q568.3438,709.6406 568.7656,709.2031 Q569.0313,708.9375 569.1719,708.8594 Q569.3281,708.7813 569.5313,708.7813 Q569.8594,708.7813 570.1094,709.0469 Q570.375,709.2969 570.375,709.6406 Q570.375,709.9844 570.0313,710.3906 Q569.5313,710.9688 568.7344,711.2969 Q567.6563,711.75 566.3594,711.75 Q564.8438,711.75 563.6406,711.125 Q562.6563,710.625 561.9688,709.5625 Q561.2813,708.4844 561.2813,707.2031 L561.2813,706.0469 Q561.2813,704.7188 561.8906,703.5781 Q562.5156,702.4219 563.6094,701.8125 Q564.7031,701.1875 565.9375,701.1875 Q566.6719,701.1875 567.3125,701.3594 Q567.9688,701.5156 568.5156,701.875 Z " fill="#000000"/><text fill="#000000" font-family="sans-serif" font-size="14" lengthAdjust="spacing" textLength="72" x="586.25" y="711.7285">RiddleBank</text><line style="stroke:#181818;stroke-width:0.5;" x1="481.5" x2="730.5" y1="722" y2="722"/><line style="stroke:#181818;stroke-width:0.5;" x1="481.5" x2="730.5" y1="730" y2="730"/><text fill="#000000" font-family="sans-serif" font-size="14" lengthAdjust="spacing" textLength="169" x="486.5" y="748.5332">+load() : ArrayList&lt;Riddle&gt;</text><text fill="#000000" font-family="sans-serif" font-size="14" lengthAdjust="spacing" textLength="239" x="486.5" y="766.1426">+shuffle(list : ArrayList&lt;Riddle&gt;) : void</text></g><!--class GameMenus--><g id="elem_GameMenus"><rect codeLine="142" fill="#F1F1F1" height="100.8281" id="GameMenus" rx="2.5" ry="2.5" style="stroke:#181818;stroke-width:0.5;" width="261" x="594.5" y="326.5"/><ellipse cx="680.75" cy="342.5" fill="#ADD1B2" rx="11" ry="11" style="stroke:#181818;stroke-width:1.0;"/><path d="M683.5156,338.375 Q683.6719,338.1563 683.8594,338.0469 Q684.0469,337.9375 684.2656,337.9375 Q684.6406,337.9375 684.875,338.2031 Q685.1094,338.4531 685.1094,339.0625 L685.1094,340.5156 Q685.1094,341.125 684.875,341.3906 Q684.6406,341.6563 684.2656,341.6563 Q683.9219,341.6563 683.7188,341.4531 Q683.5156,341.2656 683.4063,340.75 Q683.3594,340.3906 683.1719,340.2031 Q682.8438,339.8281 682.2344,339.6094 Q681.625,339.3906 681,339.3906 Q680.2344,339.3906 679.5938,339.7188 Q678.9688,340.0469 678.4688,340.7969 Q677.9844,341.5469 677.9844,342.5781 L677.9844,343.6719 Q677.9844,344.9063 678.875,345.7344 Q679.7656,346.5469 681.3594,346.5469 Q682.2969,346.5469 682.9531,346.2969 Q683.3438,346.1406 683.7656,345.7031 Q684.0313,345.4375 684.1719,345.3594 Q684.3281,345.2813 684.5313,345.2813 Q684.8594,345.2813 685.1094,345.5469 Q685.375,345.7969 685.375,346.1406 Q685.375,346.4844 685.0313,346.8906 Q684.5313,347.4688 683.7344,347.7969 Q682.6563,348.25 681.3594,348.25 Q679.8438,348.25 678.6406,347.625 Q677.6563,347.125 676.9688,346.0625 Q676.2813,344.9844 676.2813,343.7031 L676.2813,342.5469 Q676.2813,341.2188 676.8906,340.0781 Q677.5156,338.9219 678.6094,338.3125 Q679.7031,337.6875 680.9375,337.6875 Q681.6719,337.6875 682.3125,337.8594 Q682.9688,338.0156 683.5156,338.375 Z " fill="#000000"/><text fill="#000000" font-family="sans-serif" font-size="14" lengthAdjust="spacing" textLength="80" x="701.25" y="348.2285">GameMenus</text><line style="stroke:#181818;stroke-width:0.5;" x1="595.5" x2="854.5" y1="358.5" y2="358.5"/><line style="stroke:#181818;stroke-width:0.5;" x1="595.5" x2="854.5" y1="366.5" y2="366.5"/><text fill="#000000" font-family="sans-serif" font-size="14" lengthAdjust="spacing" textLength="249" x="600.5" y="385.0332">+showStartMenu(input : Scanner) : void</text><text fill="#000000" font-family="sans-serif" font-size="14" lengthAdjust="spacing" textLength="151" x="600.5" y="402.6426">+showHelpMenu() : void</text><text fill="#000000" font-family="sans-serif" font-size="14" lengthAdjust="spacing" textLength="110" x="600.5" y="420.252">+playIntro() : void</text></g><!--class InventoryMenu--><g id="elem_InventoryMenu"><rect codeLine="148" fill="#F1F1F1" height="65.6094" id="InventoryMenu" rx="2.5" ry="2.5" style="stroke:#181818;stroke-width:0.5;" width="295" x="264.5" y="344"/><ellipse cx="361.25" cy="360" fill="#ADD1B2" rx="11" ry="11" style="stroke:#181818;stroke-width:1.0;"/><path d="M364.0156,355.875 Q364.1719,355.6563 364.3594,355.5469 Q364.5469,355.4375 364.7656,355.4375 Q365.1406,355.4375 365.375,355.7031 Q365.6094,355.9531 365.6094,356.5625 L365.6094,358.0156 Q365.6094,358.625 365.375,358.8906 Q365.1406,359.1563 364.7656,359.1563 Q364.4219,359.1563 364.2188,358.9531 Q364.0156,358.7656 363.9063,358.25 Q363.8594,357.8906 363.6719,357.7031 Q363.3438,357.3281 362.7344,357.1094 Q362.125,356.8906 361.5,356.8906 Q360.7344,356.8906 360.0938,357.2188 Q359.4688,357.5469 358.9688,358.2969 Q358.4844,359.0469 358.4844,360.0781 L358.4844,361.1719 Q358.4844,362.4063 359.375,363.2344 Q360.2656,364.0469 361.8594,364.0469 Q362.7969,364.0469 363.4531,363.7969 Q363.8438,363.6406 364.2656,363.2031 Q364.5313,362.9375 364.6719,362.8594 Q364.8281,362.7813 365.0313,362.7813 Q365.3594,362.7813 365.6094,363.0469 Q365.875,363.2969 365.875,363.6406 Q365.875,363.9844 365.5313,364.3906 Q365.0313,364.9688 364.2344,365.2969 Q363.1563,365.75 361.8594,365.75 Q360.3438,365.75 359.1406,365.125 Q358.1563,364.625 357.4688,363.5625 Q356.7813,362.4844 356.7813,361.2031 L356.7813,360.0469 Q356.7813,358.7188 357.3906,357.5781 Q358.0156,356.4219 359.1094,355.8125 Q360.2031,355.1875 361.4375,355.1875 Q362.1719,355.1875 362.8125,355.3594 Q363.4688,355.5156 364.0156,355.875 Z " fill="#000000"/><text fill="#000000" font-family="sans-serif" font-size="14" lengthAdjust="spacing" textLength="93" x="381.75" y="365.7285">InventoryMenu</text><line style="stroke:#181818;stroke-width:0.5;" x1="265.5" x2="558.5" y1="376" y2="376"/><line style="stroke:#181818;stroke-width:0.5;" x1="265.5" x2="558.5" y1="384" y2="384"/><text fill="#000000" font-family="sans-serif" font-size="14" lengthAdjust="spacing" textLength="283" x="270.5" y="402.5332">+open(player : Player, input : Scanner) : void</text></g><!--class ChestHandler--><g id="elem_ChestHandler"><rect codeLine="152" fill="#F1F1F1" height="171.2656" id="ChestHandler" rx="2.5" ry="2.5" style="stroke:#181818;stroke-width:0.5;" width="182" x="47" y="291.5"/><ellipse cx="90.8" cy="307.5" fill="#ADD1B2" rx="11" ry="11" style="stroke:#181818;stroke-width:1.0;"/><path d="M93.5656,303.375 Q93.7219,303.1563 93.9094,303.0469 Q94.0969,302.9375 94.3156,302.9375 Q94.6906,302.9375 94.925,303.2031 Q95.1594,303.4531 95.1594,304.0625 L95.1594,305.5156 Q95.1594,306.125 94.925,306.3906 Q94.6906,306.6563 94.3156,306.6563 Q93.9719,306.6563 93.7688,306.4531 Q93.5656,306.2656 93.4563,305.75 Q93.4094,305.3906 93.2219,305.2031 Q92.8938,304.8281 92.2844,304.6094 Q91.675,304.3906 91.05,304.3906 Q90.2844,304.3906 89.6438,304.7188 Q89.0188,305.0469 88.5188,305.7969 Q88.0344,306.5469 88.0344,307.5781 L88.0344,308.6719 Q88.0344,309.9063 88.925,310.7344 Q89.8156,311.5469 91.4094,311.5469 Q92.3469,311.5469 93.0031,311.2969 Q93.3938,311.1406 93.8156,310.7031 Q94.0813,310.4375 94.2219,310.3594 Q94.3781,310.2813 94.5813,310.2813 Q94.9094,310.2813 95.1594,310.5469 Q95.425,310.7969 95.425,311.1406 Q95.425,311.4844 95.0813,311.8906 Q94.5813,312.4688 93.7844,312.7969 Q92.7063,313.25 91.4094,313.25 Q89.8938,313.25 88.6906,312.625 Q87.7063,312.125 87.0188,311.0625 Q86.3313,309.9844 86.3313,308.7031 L86.3313,307.5469 Q86.3313,306.2188 86.9406,305.0781 Q87.5656,303.9219 88.6594,303.3125 Q89.7531,302.6875 90.9875,302.6875 Q91.7219,302.6875 92.3625,302.8594 Q93.0188,303.0156 93.5656,303.375 Z " fill="#000000"/><text fill="#000000" font-family="sans-serif" font-size="14" lengthAdjust="spacing" textLength="86" x="111.2" y="313.2285">ChestHandler</text><line style="stroke:#181818;stroke-width:0.5;" x1="48" x2="228" y1="323.5" y2="323.5"/><text fill="#000000" font-family="sans-serif" font-size="14" lengthAdjust="spacing" textLength="85" x="53" y="342.0332">room : Room,</text><text fill="#000000" font-family="sans-serif" font-size="14" lengthAdjust="spacing" textLength="95" x="53" y="359.6426">player : Player,</text><text fill="#000000" font-family="sans-serif" font-size="14" lengthAdjust="spacing" textLength="170" x="53" y="377.252">riddles : ArrayList&lt;Riddle&gt;,</text><text fill="#000000" font-family="sans-serif" font-size="14" lengthAdjust="spacing" textLength="100" x="53" y="394.8613">input : Scanner,</text><text fill="#000000" font-family="sans-serif" font-size="14" lengthAdjust="spacing" textLength="148" x="53" y="412.4707">chestOpened : boolean</text><line style="stroke:#181818;stroke-width:0.5;" x1="48" x2="228" y1="419.5469" y2="419.5469"/><text fill="#000000" font-family="sans-serif" font-size="14" lengthAdjust="spacing" textLength="64" x="53" y="438.0801">+tryOpen(</text><text fill="#000000" font-family="sans-serif" font-size="14" lengthAdjust="spacing" textLength="68" x="53" y="455.6895">) : boolean</text></g><!--class GambleGame--><g id="elem_GambleGame"><rect codeLine="168" fill="#F1F1F1" height="65.6094" id="GambleGame" rx="2.5" ry="2.5" style="stroke:#181818;stroke-width:0.5;" width="289" x="3272.5" y="344"/><ellipse cx="3369.25" cy="360" fill="#ADD1B2" rx="11" ry="11" style="stroke:#181818;stroke-width:1.0;"/><path d="M3372.0156,355.875 Q3372.1719,355.6563 3372.3594,355.5469 Q3372.5469,355.4375 3372.7656,355.4375 Q3373.1406,355.4375 3373.375,355.7031 Q3373.6094,355.9531 3373.6094,356.5625 L3373.6094,358.0156 Q3373.6094,358.625 3373.375,358.8906 Q3373.1406,359.1563 3372.7656,359.1563 Q3372.4219,359.1563 3372.2188,358.9531 Q3372.0156,358.7656 3371.9063,358.25 Q3371.8594,357.8906 3371.6719,357.7031 Q3371.3438,357.3281 3370.7344,357.1094 Q3370.125,356.8906 3369.5,356.8906 Q3368.7344,356.8906 3368.0938,357.2188 Q3367.4688,357.5469 3366.9688,358.2969 Q3366.4844,359.0469 3366.4844,360.0781 L3366.4844,361.1719 Q3366.4844,362.4063 3367.375,363.2344 Q3368.2656,364.0469 3369.8594,364.0469 Q3370.7969,364.0469 3371.4531,363.7969 Q3371.8438,363.6406 3372.2656,363.2031 Q3372.5313,362.9375 3372.6719,362.8594 Q3372.8281,362.7813 3373.0313,362.7813 Q3373.3594,362.7813 3373.6094,363.0469 Q3373.875,363.2969 3373.875,363.6406 Q3373.875,363.9844 3373.5313,364.3906 Q3373.0313,364.9688 3372.2344,365.2969 Q3371.1563,365.75 3369.8594,365.75 Q3368.3438,365.75 3367.1406,365.125 Q3366.1563,364.625 3365.4688,363.5625 Q3364.7813,362.4844 3364.7813,361.2031 L3364.7813,360.0469 Q3364.7813,358.7188 3365.3906,357.5781 Q3366.0156,356.4219 3367.1094,355.8125 Q3368.2031,355.1875 3369.4375,355.1875 Q3370.1719,355.1875 3370.8125,355.3594 Q3371.4688,355.5156 3372.0156,355.875 Z " fill="#000000"/><text fill="#000000" font-family="sans-serif" font-size="14" lengthAdjust="spacing" textLength="87" x="3389.75" y="365.7285">GambleGame</text><line style="stroke:#181818;stroke-width:0.5;" x1="3273.5" x2="3560.5" y1="376" y2="376"/><line style="stroke:#181818;stroke-width:0.5;" x1="3273.5" x2="3560.5" y1="384" y2="384"/><text fill="#000000" font-family="sans-serif" font-size="14" lengthAdjust="spacing" textLength="277" x="3278.5" y="402.5332">+play(player : Player, input : Scanner) : void</text></g><!--class BattleSystem--><g id="elem_BattleSystem"><rect codeLine="178" fill="#F1F1F1" height="65.6094" id="BattleSystem" rx="2.5" ry="2.5" style="stroke:#181818;stroke-width:0.5;" width="384" x="2481" y="344"/><ellipse cx="2627.75" cy="360" fill="#ADD1B2" rx="11" ry="11" style="stroke:#181818;stroke-width:1.0;"/><path d="M2630.5156,355.875 Q2630.6719,355.6563 2630.8594,355.5469 Q2631.0469,355.4375 2631.2656,355.4375 Q2631.6406,355.4375 2631.875,355.7031 Q2632.1094,355.9531 2632.1094,356.5625 L2632.1094,358.0156 Q2632.1094,358.625 2631.875,358.8906 Q2631.6406,359.1563 2631.2656,359.1563 Q2630.9219,359.1563 2630.7188,358.9531 Q2630.5156,358.7656 2630.4063,358.25 Q2630.3594,357.8906 2630.1719,357.7031 Q2629.8438,357.3281 2629.2344,357.1094 Q2628.625,356.8906 2628,356.8906 Q2627.2344,356.8906 2626.5938,357.2188 Q2625.9688,357.5469 2625.4688,358.2969 Q2624.9844,359.0469 2624.9844,360.0781 L2624.9844,361.1719 Q2624.9844,362.4063 2625.875,363.2344 Q2626.7656,364.0469 2628.3594,364.0469 Q2629.2969,364.0469 2629.9531,363.7969 Q2630.3438,363.6406 2630.7656,363.2031 Q2631.0313,362.9375 2631.1719,362.8594 Q2631.3281,362.7813 2631.5313,362.7813 Q2631.8594,362.7813 2632.1094,363.0469 Q2632.375,363.2969 2632.375,363.6406 Q2632.375,363.9844 2632.0313,364.3906 Q2631.5313,364.9688 2630.7344,365.2969 Q2629.6563,365.75 2628.3594,365.75 Q2626.8438,365.75 2625.6406,365.125 Q2624.6563,364.625 2623.9688,363.5625 Q2623.2813,362.4844 2623.2813,361.2031 L2623.2813,360.0469 Q2623.2813,358.7188 2623.8906,357.5781 Q2624.5156,356.4219 2625.6094,355.8125 Q2626.7031,355.1875 2627.9375,355.1875 Q2628.6719,355.1875 2629.3125,355.3594 Q2629.9688,355.5156 2630.5156,355.875 Z " fill="#000000"/><text fill="#000000" font-family="sans-serif" font-size="14" lengthAdjust="spacing" textLength="82" x="2648.25" y="365.7285">BattleSystem</text><line style="stroke:#181818;stroke-width:0.5;" x1="2482" x2="2864" y1="376" y2="376"/><line style="stroke:#181818;stroke-width:0.5;" x1="2482" x2="2864" y1="384" y2="384"/><text fill="#000000" font-family="sans-serif" font-size="14" lengthAdjust="spacing" textLength="372" x="2487" y="402.5332">+fight(player : Player, enemy : Enemy, input : Scanner) : int</text></g><!--class SentinelBattle--><g id="elem_SentinelBattle"><rect codeLine="182" fill="#F1F1F1" height="65.6094" id="SentinelBattle" rx="2.5" ry="2.5" style="stroke:#181818;stroke-width:0.5;" width="315" x="2900.5" y="344"/><ellipse cx="3010.25" cy="360" fill="#ADD1B2" rx="11" ry="11" style="stroke:#181818;stroke-width:1.0;"/><path d="M3013.0156,355.875 Q3013.1719,355.6563 3013.3594,355.5469 Q3013.5469,355.4375 3013.7656,355.4375 Q3014.1406,355.4375 3014.375,355.7031 Q3014.6094,355.9531 3014.6094,356.5625 L3014.6094,358.0156 Q3014.6094,358.625 3014.375,358.8906 Q3014.1406,359.1563 3013.7656,359.1563 Q3013.4219,359.1563 3013.2188,358.9531 Q3013.0156,358.7656 3012.9063,358.25 Q3012.8594,357.8906 3012.6719,357.7031 Q3012.3438,357.3281 3011.7344,357.1094 Q3011.125,356.8906 3010.5,356.8906 Q3009.7344,356.8906 3009.0938,357.2188 Q3008.4688,357.5469 3007.9688,358.2969 Q3007.4844,359.0469 3007.4844,360.0781 L3007.4844,361.1719 Q3007.4844,362.4063 3008.375,363.2344 Q3009.2656,364.0469 3010.8594,364.0469 Q3011.7969,364.0469 3012.4531,363.7969 Q3012.8438,363.6406 3013.2656,363.2031 Q3013.5313,362.9375 3013.6719,362.8594 Q3013.8281,362.7813 3014.0313,362.7813 Q3014.3594,362.7813 3014.6094,363.0469 Q3014.875,363.2969 3014.875,363.6406 Q3014.875,363.9844 3014.5313,364.3906 Q3014.0313,364.9688 3013.2344,365.2969 Q3012.1563,365.75 3010.8594,365.75 Q3009.3438,365.75 3008.1406,365.125 Q3007.1563,364.625 3006.4688,363.5625 Q3005.7813,362.4844 3005.7813,361.2031 L3005.7813,360.0469 Q3005.7813,358.7188 3006.3906,357.5781 Q3007.0156,356.4219 3008.1094,355.8125 Q3009.2031,355.1875 3010.4375,355.1875 Q3011.1719,355.1875 3011.8125,355.3594 Q3012.4688,355.5156 3013.0156,355.875 Z " fill="#000000"/><text fill="#000000" font-family="sans-serif" font-size="14" lengthAdjust="spacing" textLength="87" x="3030.75" y="365.7285">SentinelBattle</text><line style="stroke:#181818;stroke-width:0.5;" x1="2901.5" x2="3214.5" y1="376" y2="376"/><line style="stroke:#181818;stroke-width:0.5;" x1="2901.5" x2="3214.5" y1="384" y2="384"/><text fill="#000000" font-family="sans-serif" font-size="14" lengthAdjust="spacing" textLength="303" x="2906.5" y="402.5332">+fight(player : Player, input : Scanner) : boolean</text></g><!--class SaveManager--><g id="elem_SaveManager"><rect codeLine="192" fill="#F1F1F1" height="171.2656" id="SaveManager" rx="2.5" ry="2.5" style="stroke:#181818;stroke-width:0.5;" width="221" x="3618.5" y="291.5"/><ellipse cx="3680.75" cy="307.5" fill="#ADD1B2" rx="11" ry="11" style="stroke:#181818;stroke-width:1.0;"/><path d="M3683.5156,303.375 Q3683.6719,303.1563 3683.8594,303.0469 Q3684.0469,302.9375 3684.2656,302.9375 Q3684.6406,302.9375 3684.875,303.2031 Q3685.1094,303.4531 3685.1094,304.0625 L3685.1094,305.5156 Q3685.1094,306.125 3684.875,306.3906 Q3684.6406,306.6563 3684.2656,306.6563 Q3683.9219,306.6563 3683.7188,306.4531 Q3683.5156,306.2656 3683.4063,305.75 Q3683.3594,305.3906 3683.1719,305.2031 Q3682.8438,304.8281 3682.2344,304.6094 Q3681.625,304.3906 3681,304.3906 Q3680.2344,304.3906 3679.5938,304.7188 Q3678.9688,305.0469 3678.4688,305.7969 Q3677.9844,306.5469 3677.9844,307.5781 L3677.9844,308.6719 Q3677.9844,309.9063 3678.875,310.7344 Q3679.7656,311.5469 3681.3594,311.5469 Q3682.2969,311.5469 3682.9531,311.2969 Q3683.3438,311.1406 3683.7656,310.7031 Q3684.0313,310.4375 3684.1719,310.3594 Q3684.3281,310.2813 3684.5313,310.2813 Q3684.8594,310.2813 3685.1094,310.5469 Q3685.375,310.7969 3685.375,311.1406 Q3685.375,311.4844 3685.0313,311.8906 Q3684.5313,312.4688 3683.7344,312.7969 Q3682.6563,313.25 3681.3594,313.25 Q3679.8438,313.25 3678.6406,312.625 Q3677.6563,312.125 3676.9688,311.0625 Q3676.2813,309.9844 3676.2813,308.7031 L3676.2813,307.5469 Q3676.2813,306.2188 3676.8906,305.0781 Q3677.5156,303.9219 3678.6094,303.3125 Q3679.7031,302.6875 3680.9375,302.6875 Q3681.6719,302.6875 3682.3125,302.8594 Q3682.9688,303.0156 3683.5156,303.375 Z " fill="#000000"/><text fill="#000000" font-family="sans-serif" font-size="14" lengthAdjust="spacing" textLength="88" x="3701.25" y="313.2285">SaveManager</text><line style="stroke:#181818;stroke-width:0.5;" x1="3619.5" x2="3838.5" y1="323.5" y2="323.5"/><text fill="#000000" font-family="sans-serif" font-size="14" lengthAdjust="spacing" textLength="113" x="3624.5" y="342.0332">currentRoom : int,</text><text fill="#000000" font-family="sans-serif" font-size="14" lengthAdjust="spacing" textLength="152" x="3624.5" y="359.6426">chestOpened : boolean,</text><text fill="#000000" font-family="sans-serif" font-size="14" lengthAdjust="spacing" textLength="95" x="3624.5" y="377.252">player : Player,</text><text fill="#000000" font-family="sans-serif" font-size="14" lengthAdjust="spacing" textLength="128" x="3624.5" y="394.8613">inventory : Inventory</text><line style="stroke:#181818;stroke-width:0.5;" x1="3619.5" x2="3838.5" y1="401.9375" y2="401.9375"/><text fill="#000000" font-family="sans-serif" font-size="14" lengthAdjust="spacing" textLength="81" x="3624.5" y="420.4707">+saveGame(</text><text fill="#000000" font-family="sans-serif" font-size="14" lengthAdjust="spacing" textLength="43" x="3624.5" y="438.0801">) : void</text><text fill="#000000" font-family="sans-serif" font-size="14" lengthAdjust="spacing" textLength="209" x="3624.5" y="455.6895">+loadGame(player : Player) : int[]</text></g><!--class Utils--><g id="elem_Utils"><rect codeLine="208" fill="#F1F1F1" height="83.2188" id="Utils" rx="2.5" ry="2.5" style="stroke:#181818;stroke-width:0.5;" width="107" x="3896.5" y="335.5"/><ellipse cx="3933.55" cy="351.5" fill="#ADD1B2" rx="11" ry="11" style="stroke:#181818;stroke-width:1.0;"/><path d="M3936.3156,347.375 Q3936.4719,347.1563 3936.6594,347.0469 Q3936.8469,346.9375 3937.0656,346.9375 Q3937.4406,346.9375 3937.675,347.2031 Q3937.9094,347.4531 3937.9094,348.0625 L3937.9094,349.5156 Q3937.9094,350.125 3937.675,350.3906 Q3937.4406,350.6563 3937.0656,350.6563 Q3936.7219,350.6563 3936.5188,350.4531 Q3936.3156,350.2656 3936.2063,349.75 Q3936.1594,349.3906 3935.9719,349.2031 Q3935.6438,348.8281 3935.0344,348.6094 Q3934.425,348.3906 3933.8,348.3906 Q3933.0344,348.3906 3932.3938,348.7188 Q3931.7688,349.0469 3931.2688,349.7969 Q3930.7844,350.5469 3930.7844,351.5781 L3930.7844,352.6719 Q3930.7844,353.9063 3931.675,354.7344 Q3932.5656,355.5469 3934.1594,355.5469 Q3935.0969,355.5469 3935.7531,355.2969 Q3936.1438,355.1406 3936.5656,354.7031 Q3936.8313,354.4375 3936.9719,354.3594 Q3937.1281,354.2813 3937.3313,354.2813 Q3937.6594,354.2813 3937.9094,354.5469 Q3938.175,354.7969 3938.175,355.1406 Q3938.175,355.4844 3937.8313,355.8906 Q3937.3313,356.4688 3936.5344,356.7969 Q3935.4563,357.25 3934.1594,357.25 Q3932.6438,357.25 3931.4406,356.625 Q3930.4563,356.125 3929.7688,355.0625 Q3929.0813,353.9844 3929.0813,352.7031 L3929.0813,351.5469 Q3929.0813,350.2188 3929.6906,349.0781 Q3930.3156,347.9219 3931.4094,347.3125 Q3932.5031,346.6875 3933.7375,346.6875 Q3934.4719,346.6875 3935.1125,346.8594 Q3935.7688,347.0156 3936.3156,347.375 Z " fill="#000000"/><text fill="#000000" font-family="sans-serif" font-size="14" lengthAdjust="spacing" textLength="26" x="3952.45" y="357.2285">Utils</text><line style="stroke:#181818;stroke-width:0.5;" x1="3897.5" x2="4002.5" y1="367.5" y2="367.5"/><line style="stroke:#181818;stroke-width:0.5;" x1="3897.5" x2="4002.5" y1="375.5" y2="375.5"/><text fill="#000000" font-family="sans-serif" font-size="14" lengthAdjust="spacing" textLength="87" x="3902.5" y="394.0332">+clear() : void</text><text fill="#000000" font-family="sans-serif" font-size="14" lengthAdjust="spacing" textLength="95" x="3902.5" y="411.6426">+pause() : void</text></g><g id="elem_GMN55"><path d="M4325,702 L4325,761.0547 L4503,761.0547 L4503,712 L4493,702 L4325,702 " fill="#FEFFDD" style="stroke:#181818;stroke-width:0.5;"/><path d="M4493,702 L4493,712 L4503,712 L4493,702 " fill="#FEFFDD" style="stroke:#181818;stroke-width:1.0;"/><text fill="#000000" font-family="sans-serif" font-size="13" lengthAdjust="spacing" textLength="120" x="4331" y="720.4951">Uses recursive logic:</text><text fill="#000000" font-family="sans-serif" font-size="13" lengthAdjust="spacing" textLength="149" x="4331" y="736.8467">gambleRound() calls itself</text><text fill="#000000" font-family="sans-serif" font-size="13" lengthAdjust="spacing" textLength="157" x="4331" y="753.1982">to allow repeated wagering.</text></g><g id="elem_GMN58"><path d="M5032.5,702 L5032.5,761.0547 L5193.5,761.0547 L5193.5,712 L5183.5,702 L5032.5,702 " fill="#FEFFDD" style="stroke:#181818;stroke-width:0.5;"/><path d="M5183.5,702 L5183.5,712 L5193.5,712 L5183.5,702 " fill="#FEFFDD" style="stroke:#181818;stroke-width:1.0;"/><text fill="#000000" font-family="sans-serif" font-size="13" lengthAdjust="spacing" textLength="137" x="5038.5" y="720.4951">shuffle() is implemented</text><text fill="#000000" font-family="sans-serif" font-size="13" lengthAdjust="spacing" textLength="140" x="5038.5" y="736.8467">recursively to randomize</text><text fill="#000000" font-family="sans-serif" font-size="13" lengthAdjust="spacing" textLength="68" x="5038.5" y="753.1982">riddle order.</text></g><g id="elem_GMN61"><path d="M4068.5,685.5 L4068.5,777.2578 L4289.5,777.2578 L4289.5,695.5 L4279.5,685.5 L4068.5,685.5 " fill="#FEFFDD" style="stroke:#181818;stroke-width:0.5;"/><path d="M4279.5,685.5 L4279.5,695.5 L4289.5,695.5 L4279.5,685.5 " fill="#FEFFDD" style="stroke:#181818;stroke-width:1.0;"/><text fill="#000000" font-family="sans-serif" font-size="13" lengthAdjust="spacing" textLength="200" x="4074.5" y="703.9951">Boss behavior changes at runtime.</text><text fill="#000000" font-family="sans-serif" font-size="13" lengthAdjust="spacing" textLength="141" x="4074.5" y="720.3467">When Sentinel HP &lt; 50:</text><text fill="#000000" font-family="sans-serif" font-size="13" lengthAdjust="spacing" textLength="172" x="4074.5" y="736.6982">- armorCracked becomes true</text><text fill="#000000" font-family="sans-serif" font-size="13" lengthAdjust="spacing" textLength="162" x="4074.5" y="753.0498">- attack damage is reduced.</text><text fill="#000000" font-family="sans-serif" font-size="13" lengthAdjust="spacing" textLength="183" x="4074.5" y="769.4014">This represents a state change.</text></g><g id="elem_GMN64"><path d="M4538.5,702 L4538.5,761.0547 L4765.5,761.0547 L4765.5,712 L4755.5,702 L4538.5,702 " fill="#FEFFDD" style="stroke:#181818;stroke-width:0.5;"/><path d="M4755.5,702 L4755.5,712 L4765.5,712 L4755.5,702 " fill="#FEFFDD" style="stroke:#181818;stroke-width:1.0;"/><text fill="#000000" font-family="sans-serif" font-size="13" lengthAdjust="spacing" textLength="142" x="4544.5" y="720.4951">Handles file persistence:</text><text fill="#000000" font-family="sans-serif" font-size="13" lengthAdjust="spacing" textLength="206" x="4544.5" y="736.8467">- writes player data to savegame.txt</text><text fill="#000000" font-family="sans-serif" font-size="13" lengthAdjust="spacing" textLength="174" x="4544.5" y="753.1982">- restores game state on load.</text></g><g id="elem_GMN67"><path d="M4801,702 L4801,761.0547 L4997,761.0547 L4997,712 L4987,702 L4801,702 " fill="#FEFFDD" style="stroke:#181818;stroke-width:0.5;"/><path d="M4987,702 L4987,712 L4997,712 L4987,702 " fill="#FEFFDD" style="stroke:#181818;stroke-width:1.0;"/><text fill="#000000" font-family="sans-serif" font-size="13" lengthAdjust="spacing" textLength="175" x="4807" y="720.4951">Provides static utility behavior:</text><text fill="#000000" font-family="sans-serif" font-size="13" lengthAdjust="spacing" textLength="136" x="4807" y="736.8467">- clears terminal screen</text><text fill="#000000" font-family="sans-serif" font-size="13" lengthAdjust="spacing" textLength="164" x="4807" y="753.1982">- pauses execution for input.</text></g><g id="elem_GMN70"><path d="M5228.5,702 L5228.5,761.0547 L5441.5,761.0547 L5441.5,712 L5431.5,702 L5228.5,702 " fill="#FEFFDD" style="stroke:#181818;stroke-width:0.5;"/><path d="M5431.5,702 L5431.5,712 L5441.5,712 L5431.5,702 " fill="#FEFFDD" style="stroke:#181818;stroke-width:1.0;"/><text fill="#000000" font-family="sans-serif" font-size="13" lengthAdjust="spacing" textLength="187" x="5234.5" y="720.4951">Scanner is created once in main</text><text fill="#000000" font-family="sans-serif" font-size="13" lengthAdjust="spacing" textLength="192" x="5234.5" y="736.8467">and passed through method calls</text><text fill="#000000" font-family="sans-serif" font-size="13" lengthAdjust="spacing" textLength="119" x="5234.5" y="753.1982">to avoid global state.</text></g><!--reverse link Character to Player--><g id="link_Character_Player"><path codeLine="49" d="M1259.4322,505.5112 C1273.9822,538.4012 1282.82,558.37 1298.03,592.73 " fill="none" id="Character-backto-Player" style="stroke:#181818;stroke-width:1.0;"/><polygon fill="none" points="1252.15,489.05,1253.9451,507.9386,1264.9192,503.0838,1252.15,489.05" style="stroke:#181818;stroke-width:1.0;"/></g><!--reverse link Character to Enemy--><g id="link_Character_Enemy"><path codeLine="50" d="M1152.6073,505.7953 C1128.6573,566.5353 1106.56,622.56 1086.98,672.23 " fill="none" id="Character-backto-Enemy" style="stroke:#181818;stroke-width:1.0;"/><polygon fill="none" points="1159.21,489.05,1147.0255,503.5944,1158.189,507.9962,1159.21,489.05" style="stroke:#181818;stroke-width:1.0;"/></g><!--reverse link Enemy to Goblin--><g id="link_Enemy_Goblin"><path codeLine="51" d="M1064,808.71 C1064,852.8 1064,893.73 1064,929.72 " fill="none" id="Enemy-backto-Goblin" style="stroke:#181818;stroke-width:1.0;"/><polygon fill="none" points="1064,790.71,1058,808.71,1070,808.71,1064,790.71" style="stroke:#181818;stroke-width:1.0;"/></g><!--reverse link Saveable to Inventory--><g id="link_Saveable_Inventory"><path codeLine="81" d="M1656.852,1013.623 C1660.412,1029.873 1661.16,1033.35 1666.09,1055.91 " fill="none" id="Saveable-backto-Inventory" style="stroke:#181818;stroke-width:1.0;stroke-dasharray:7.0,7.0;"/><polygon fill="none" points="1653,996.04,1650.991,1014.907,1662.713,1012.339,1653,996.04" style="stroke:#181818;stroke-width:1.0;"/></g><!--reverse link Room to Enemy--><g id="link_Room_Enemy"><path codeLine="115" d="M2121.7097,540.0049 C2108.5197,549.3249 2104.44,550.59 2090,557 C1915.79,634.36 1411.23,525.41 1233,593 C1188.97,609.7 1147.79,642.68 1117.11,672.15 " fill="none" id="Room-backto-Enemy" style="stroke:#181818;stroke-width:1.0;"/><polygon fill="none" points="2131.51,533.08,2124.3016,533.2757,2121.7097,540.0049,2128.9181,539.8092,2131.51,533.08" style="stroke:#181818;stroke-width:1.0;"/></g><!--reverse link Player to Inventory--><g id="link_Player_Inventory"><path codeLine="230" d="M1460.4296,880.01 C1493.4896,927.67 1524.2,971.44 1559,1020 C1567.4,1031.73 1576.15,1043.81 1584.97,1055.95 " fill="none" id="Player-backto-Inventory" style="stroke:#181818;stroke-width:1.0;"/><polygon fill="#181818" points="1453.59,870.15,1453.7231,877.3599,1460.4296,880.01,1460.2965,872.8002,1453.59,870.15" style="stroke:#181818;stroke-width:1.0;"/></g><!--link Player to Saveable--><g id="link_Player_Saveable"><path codeLine="231" d="M1467.09,818.94 C1515.56,857.69 1555.7128,889.7974 1591.6228,918.5174 " fill="none" id="Player-to-Saveable" style="stroke:#181818;stroke-width:1.0;stroke-dasharray:7.0,7.0;"/><polygon fill="none" points="1605.68,929.76,1595.3704,913.8317,1587.8753,923.2031,1605.68,929.76" style="stroke:#181818;stroke-width:1.0;"/></g><!--reverse link GridQuestRPG to Player--><g id="link_GridQuestRPG_Player"><path codeLine="233" d="M2363.4515,104.3309 C2134.6815,107.9709 1572.84,122.31 1507,177 C1386.3,277.26 1358.15,464.13 1354.33,592.8 " fill="none" id="GridQuestRPG-backto-Player" style="stroke:#181818;stroke-width:1.0;"/><polygon fill="#181818" points="2375.45,104.14,2369.3871,100.236,2363.4515,104.3309,2369.5144,108.2349,2375.45,104.14" style="stroke:#181818;stroke-width:1.0;"/></g><!--reverse link GridQuestRPG to Room--><g id="link_GridQuestRPG_Room"><path codeLine="234" d="M2418.5406,170.8603 C2405.2706,188.7103 2397.15,199.63 2381.41,220.79 " fill="none" id="GridQuestRPG-backto-Room" style="stroke:#181818;stroke-width:1.0;"/><polygon fill="#181818" points="2425.7,161.23,2418.9102,163.6587,2418.5406,170.8603,2425.3304,168.4316,2425.7,161.23" style="stroke:#181818;stroke-width:1.0;"/></g><!--reverse link GridQuestRPG to WorldMap--><g id="link_GridQuestRPG_WorldMap"><path codeLine="235" d="M2363.4805,103.045 C2195.4305,104.515 1862.5,115.14 1762,177 C1699.21,215.65 1661.54,297.94 1644.64,343.66 " fill="none" id="GridQuestRPG-backto-WorldMap" style="stroke:#181818;stroke-width:1.0;"/><polygon fill="none" points="2375.48,102.94,2369.4452,98.9926,2363.4805,103.045,2369.5152,106.9923,2375.48,102.94" style="stroke:#181818;stroke-width:1.0;"/></g><!--link GridQuestRPG to GameMenus--><g id="link_GridQuestRPG_GameMenus"><path codeLine="237" d="M2375.23,103.11 C2056.71,104.09 1028.64,112.28 896,177 C830.7,208.86 783.4746,273.1236 754.8246,320.9236 " fill="none" id="GridQuestRPG-to-GameMenus" style="stroke:#181818;stroke-width:1.0;stroke-dasharray:7.0,7.0;"/><polygon fill="#181818" points="751.74,326.07,759.7978,320.4068,754.3105,321.7813,752.936,316.294,751.74,326.07" style="stroke:#181818;stroke-width:1.0;"/></g><!--link GridQuestRPG to InventoryMenu--><g id="link_GridQuestRPG_InventoryMenu"><path codeLine="238" d="M2375.26,104.55 C2004.7,110.94 658.28,136.85 577,177 C504.37,212.88 454.9236,291.78 430.4336,338.33 " fill="none" id="GridQuestRPG-to-InventoryMenu" style="stroke:#181818;stroke-width:1.0;stroke-dasharray:7.0,7.0;"/><polygon fill="#181818" points="427.64,343.64,435.3704,337.5374,429.968,339.215,428.2904,333.8126,427.64,343.64" style="stroke:#181818;stroke-width:1.0;"/></g><!--link GridQuestRPG to ChestHandler--><g id="link_GridQuestRPG_ChestHandler"><path codeLine="239" d="M2375.44,103.54 C1964.86,106.24 338.87,120.48 247,177 C205.65,202.44 181.066,243.9342 164.386,285.9042 " fill="none" id="GridQuestRPG-to-ChestHandler" style="stroke:#181818;stroke-width:1.0;stroke-dasharray:7.0,7.0;"/><polygon fill="#181818" points="162.17,291.48,169.2112,284.5936,164.0166,286.8335,161.7768,281.639,162.17,291.48" style="stroke:#181818;stroke-width:1.0;"/></g><!--link GridQuestRPG to GambleGame--><g id="link_GridQuestRPG_GambleGame"><path codeLine="240" d="M2562.59,103.87 C2739.72,106.85 3116.58,119.92 3232,177 C3308.11,214.64 3365.4323,292.6658 3394.6723,338.6858 " fill="none" id="GridQuestRPG-to-GambleGame" style="stroke:#181818;stroke-width:1.0;stroke-dasharray:7.0,7.0;"/><polygon fill="#181818" points="3397.89,343.75,3396.4396,334.0085,3395.2086,339.5298,3389.6873,338.2988,3397.89,343.75" style="stroke:#181818;stroke-width:1.0;"/></g><!--link GridQuestRPG to BattleSystem--><g id="link_GridQuestRPG_BattleSystem"><path codeLine="241" d="M2512.51,161.23 C2554.17,216.98 2611.8991,294.2232 2645.3891,339.0532 " fill="none" id="GridQuestRPG-to-BattleSystem" style="stroke:#181818;stroke-width:1.0;stroke-dasharray:7.0,7.0;"/><polygon fill="#181818" points="2648.98,343.86,2646.7982,334.2558,2645.9876,339.8543,2640.3891,339.0437,2648.98,343.86" style="stroke:#181818;stroke-width:1.0;"/></g><!--link GridQuestRPG to SentinelBattle--><g id="link_GridQuestRPG_SentinelBattle"><path codeLine="242" d="M2562.94,112.59 C2667.46,124.52 2828.66,147.02 2882,177 C2953.97,217.45 3008.1793,293.52 3036.1793,338.7 " fill="none" id="GridQuestRPG-to-SentinelBattle" style="stroke:#181818;stroke-width:1.0;stroke-dasharray:7.0,7.0;"/><polygon fill="#181818" points="3039.34,343.8,3037.999,334.0429,3036.7061,339.55,3031.199,338.2571,3039.34,343.8" style="stroke:#181818;stroke-width:1.0;"/></g><!--link GridQuestRPG to SaveManager--><g id="link_GridQuestRPG_SaveManager"><path codeLine="243" d="M2562.93,104.83 C2814.39,110.35 3489.77,129.47 3578,177 C3625.06,202.35 3658.6897,244.2891 3684.1497,286.2891 " fill="none" id="GridQuestRPG-to-SaveManager" style="stroke:#181818;stroke-width:1.0;stroke-dasharray:7.0,7.0;"/><polygon fill="#181818" points="3687.26,291.42,3686.0151,281.6501,3684.6681,287.1443,3679.174,285.7972,3687.26,291.42" style="stroke:#181818;stroke-width:1.0;"/></g><!--link GridQuestRPG to Utils--><g id="link_GridQuestRPG_Utils"><path codeLine="244" d="M2562.67,102.51 C2856.87,101.71 3749.21,105.28 3856,177 C3909.61,213 3932.1525,282.3311 3942.1325,329.2811 " fill="none" id="GridQuestRPG-to-Utils" style="stroke:#181818;stroke-width:1.0;stroke-dasharray:7.0,7.0;"/><polygon fill="#181818" points="3943.38,335.15,3945.4213,325.515,3942.3404,330.2593,3937.5961,327.1784,3943.38,335.15" style="stroke:#181818;stroke-width:1.0;"/></g><!--link ChestHandler to Riddle--><g id="link_ChestHandler_Riddle"><path codeLine="246" d="M178.94,462.88 C208.61,524.4 245.5737,601.0557 273.0437,658.0157 " fill="none" id="ChestHandler-to-Riddle" style="stroke:#181818;stroke-width:1.0;stroke-dasharray:7.0,7.0;"/><polygon fill="#181818" points="275.65,663.42,275.3434,653.5759,273.478,658.9164,268.1376,657.051,275.65,663.42" style="stroke:#181818;stroke-width:1.0;"/></g><!--link GambleGame to Player--><g id="link_GambleGame_Player"><path codeLine="247" d="M3394.77,410.25 C3363.77,452.28 3303.27,524.26 3232,557 C2914.2,703 1823.0597,726.0771 1473.1397,729.7471 " fill="none" id="GambleGame-to-Player" style="stroke:#181818;stroke-width:1.0;stroke-dasharray:7.0,7.0;"/><polygon fill="#181818" points="1467.14,729.81,1476.1815,733.7154,1472.1397,729.7576,1476.0976,725.7158,1467.14,729.81" style="stroke:#181818;stroke-width:1.0;"/></g><!--link BattleSystem to Player--><g id="link_BattleSystem_Player"><path codeLine="248" d="M2642.21,410.16 C2600.68,451.4 2522.48,521.77 2441,557 C2106.81,701.48 1673.599,726.8014 1473.149,730.4314 " fill="none" id="BattleSystem-to-Player" style="stroke:#181818;stroke-width:1.0;stroke-dasharray:7.0,7.0;"/><polygon fill="#181818" points="1467.15,730.54,1476.2209,734.3764,1472.1492,730.4495,1476.0761,726.3777,1467.15,730.54" style="stroke:#181818;stroke-width:1.0;"/></g><!--link BattleSystem to Enemy--><g id="link_BattleSystem_Enemy"><path codeLine="249" d="M2644.24,410.32 C2603.79,453.13 2525.55,526.76 2441,557 C2188.12,647.44 1484.69,499.3 1233,593 C1188.69,609.5 1151.6779,638.504 1120.9779,668.124 " fill="none" id="BattleSystem-to-Enemy" style="stroke:#181818;stroke-width:1.0;stroke-dasharray:7.0,7.0;"/><polygon fill="#181818" points="1116.66,672.29,1125.9142,668.9196,1120.2583,668.8183,1120.3595,663.1624,1116.66,672.29" style="stroke:#181818;stroke-width:1.0;"/></g><!--link SentinelBattle to Player--><g id="link_SentinelBattle_Player"><path codeLine="250" d="M3037.13,410.02 C3007.95,451.79 2950.75,523.48 2882,557 C2631.58,679.09 1778.0268,717.3342 1473.2368,727.2842 " fill="none" id="SentinelBattle-to-Player" style="stroke:#181818;stroke-width:1.0;stroke-dasharray:7.0,7.0;"/><polygon fill="#181818" points="1467.24,727.48,1476.3657,731.1842,1472.2373,727.3169,1476.1047,723.1885,1467.24,727.48" style="stroke:#181818;stroke-width:1.0;"/></g><!--link GambleGame to GMN55--><g id="link_GambleGame_GMN55"><path d="M3438.77,410.33 C3469.47,452.8 3529.86,525.65 3602,557 C3745.87,619.53 4167.88,520.52 4307,593 C4352.34,616.62 4384.45,668.98 4401.03,701.84 " fill="none" id="GambleGame-GMN55" style="stroke:#181818;stroke-width:1.0;stroke-dasharray:7.0,7.0;"/></g><!--link RiddleBank to GMN58--><g id="link_RiddleBank_GMN58"><path d="M666.23,689.96 C725.9,651.51 821.47,597.07 913.5,575 C968.66,561.77 4945.25,552.92 4997.5,575 C5052.25,598.13 5086.31,663.43 5102.25,701.98 " fill="none" id="RiddleBank-GMN58" style="stroke:#181818;stroke-width:1.0;stroke-dasharray:7.0,7.0;"/></g><!--link SentinelBattle to GMN61--><g id="link_SentinelBattle_GMN61"><path d="M3083.7,410.3 C3118.25,451.35 3183.77,521.17 3256,557 C3526.6,691.21 3888.89,722.03 4068.48,728.82 " fill="none" id="SentinelBattle-GMN61" style="stroke:#181818;stroke-width:1.0;stroke-dasharray:7.0,7.0;"/></g><!--link SaveManager to GMN64--><g id="link_SaveManager_GMN64"><path d="M3778.23,462.55 C3803.75,498.2 3838.35,536.21 3880,557 C4007.64,620.73 4391.49,533.16 4521,593 C4571.58,616.37 4612.47,668.81 4634.42,701.75 " fill="none" id="SaveManager-GMN64" style="stroke:#181818;stroke-width:1.0;stroke-dasharray:7.0,7.0;"/></g><!--link Utils to GMN67--><g id="link_Utils_GMN67"><path d="M4003.7,390.91 C4182.6,434.03 4748.96,571.6 4783,593 C4827.02,620.68 4862.85,670.52 4882.52,701.98 " fill="none" id="Utils-GMN67" style="stroke:#181818;stroke-width:1.0;stroke-dasharray:7.0,7.0;"/></g><!--link GridQuestRPG to GMN70--><g id="link_GridQuestRPG_GMN70"><path d="M2562.75,103.94 C2853.68,107.42 3738.5,122.32 4020,177 C4570.41,283.91 4744.01,282.68 5211,593 C5255.18,622.35 5293.92,670.99 5315.88,701.86 " fill="none" id="GridQuestRPG-GMN70" style="stroke:#181818;stroke-width:1.0;stroke-dasharray:7.0,7.0;"/></g><!--SRC=[jLbVRzis47_tfo2wXybDOlHbBqKMm6c39a2JPd6ARXZsG4jdYuX4UYJbn6tptNT7oh8eqMwQU7boxux7-_kxeshkX5nmpKksuEaTdyF4hWfW6bBBvRo0WMa4qe8RCxPMYsbbuI9LSYA-0dip6FpAVd_E7vwRyn96QOxwKmlQF5jJRJnxrL7uYdqR31Z-yQcnHFDUi7Th2UIp-kyNbWClRCxUCY5jYyojHVKzSiaVpcC73fZbTt1RQPai2hx2EzwoQ_TZYB-MIcGjKM76XLX2GgofKWLmsUBEmVeh73-y17cNQmlYxB6pEy8Z-zxp4WEMPENSioEsKJWINgfAseZCem-iZwVthnNC8vHVWhHAh_3GnVftY__GCUk8hNg6UhN9i4zgf-emoD3mUOd0U3LMkf3rRJvWXYynS9OxWGbsWfotkKsssjR5x_epdhA_8cH3qWzRbHawjVfHWiuabAiWFn8x9UQ5aqm2xY7xFy9zXLTq0ndO_45D2o5RHX_KfBeWQk5DBnz_Fpgghunnd6UEuQFXY5xZuF75ADRK-vv0hD7NO1X66_ICfy0cM8TyYZZzxGd56SIqgUgmLosK1a-DjUQhZyBOOt_-f2MZTEPIkbtcWBKwg4Mj35mhArIqBlgWX-BZnQA0fqdZ6B9SI9DOhh6e6jVZqZpBBj3NX1mEH3lbcGb3joSnLEIczYP-XOPIBQ4bqZcF9bnMXHNe8PbYd2rNORkbMp1t0rNkvF07wJ1Gu1n7EoPAsoIA7VzMc331YmbmdUQn87R0Q7UHDOLv_7qqQa7eozlhNkaYsrDhELrDM_d6k56gV08-7h4CJAh5Wi8QOtEz2T_V_xGOu33dRGk5Qlg3iDHxvzpabtnnlAw12-psEUXsFid6BZB7p1c6us6CoG_DYeyHZ_o1dV7wzu9RLvODE_GLsmfcm5lyVckSOJIIJ6XVjoq_DVf-8JDusDKMMqv7Hsri_Ene_W15lr01dLQYo8Ab1z58et_Ws4d95q5_KlPEVg0J2o3GjpObhRJ6Ld95kdNIEwvg1jtBUqwBB2jWNrjvhQtRTuuQT1vYajdQNjBSkvdGovfNbFGE7tRF3CCw-AC-4A-5D8VqRkmK9FWGghOFcCU-LwTStWNfB1JFEgZj9GFKpglP33qfa1qJxQJ-vMckn9uoN8bESZyWzH9aPS959LVt4vmqbbYRgAPSokYkIFBdK2oSU8HF7O9egTMEZcr64Ia9h54Bw2qcXsoNLO7YTpcMppcNc9aG2gnUVIBL3Od-j6zWwjJ3WD4r83pbEoTM3A5Wn-gGcPAbP19a4UHch5_GBo-jKaX1F_Q58Os-Vg7Xra7b5kJ0OUTFvlRbJgUgd7AxhsyPJbd7tLDyWHKmMHbQOziEpyGyjtsFWvaU3S1wF0QrFQ7TK4BXhtlAHH7D-oufsa3t55jIrOaiBR2NNAACxZskgBp2TkwDvITqt4_q_UvFABvZErX84yRP6NayeNtrHhgNgM55iQ-vWQewUVYCf71gf1Wy7OL_ZY_6PDzTp71_4tAu7m-xQ8M0xjQEc-iFmUPZwePxx_RaA4uVzOkkpTk9yGUCVCAtmDniUmoyC78tPn_7jnUVhYRd5zUJP-kfloQ-nbLsK_OrSJJwVj8yCmU389IlDvz_UdGALqYbJNczT7SKZKOdczsbpmgMYJwxlH94zTQZgizhutgV6y9nXB_1hZxJDTHW4AmhHFTxnA0rG8bQHp6OCxle_iNHcHUj0x5IO5UVRiycVVh0AbpBSmV0Kbd0zGTd3LEpTkWO-snm8yANNgMDM082troaRv4-Tq8tgfAqQgUyG1p15pOKCsHQnP2Wxl7WmdVOFOKB-s0q09ankc_GkNMpowE2zN8-P0BLbei2IdGQg7aQMueLtQCnoAeKNybMly3vJsZRB-habx5JXM0nXPmlXTBOsrpEqMTkcQvG4e4JPRxa89kJxFoQ7RFVtb0Sw5D4gVGxZK24Vau1DmayRNK5dki_ucRk_m786mrPbK96Iczpz- -51a8al98PYz6gJTZXGQi26VDbPd1NGDyNWB71Uf4fUElkjR38hETKnYsdgD6STJF1FbWdXYPWfw6W0sLl1hxkQCvjjyCNEsFNMYr5XeVfd4WP3HfXLqrClILkic1aGEDwoGjcy1KFqh7SR34C7Z2txbKvmqIu9QTt-LHPI-_lMG3lgANUXIZ4_lD0XWwa67Bfu1WbC4vuap78iRbMrJnd9NQ0odpvrdLB6CtcXPgIYHI7bWcF_m40]--></g></svg>